<svg width="24" height="24" viewBox="0 0 24 24" fill="none" xmlns="http://www.w3.org/2000/svg">
<g clip-path="url(#clip0_48_2223)">
<g clip-path="url(#clip1_48_2223)">
<path d="M20.9992 9.46114C20.9992 8.32124 20.6332 7.25043 19.9345 6.31779C20.2007 5.41969 20.2672 4.27979 20.2007 2.96718C20.1674 2.41451 19.7349 2 19.2025 2C18.9031 2 16.3744 2.03454 14.9105 3.38169C13.6461 3.1399 12.3153 3.1399 11.0177 3.38169C9.58698 2.03454 7.05833 2 6.72561 2C6.19326 2 5.76073 2.41451 5.72746 2.96718C5.62764 4.27979 5.72746 5.41969 5.99363 6.31779C5.29492 7.28497 4.92894 8.35579 4.92894 9.46114C4.92894 11.8791 6.72561 14.0553 9.45389 15.0915C9.35407 15.2988 9.28753 15.5406 9.22099 15.7824C6.32635 15.4715 4.96221 12.7427 4.89566 12.639C4.66276 12.1209 4.06387 11.9136 3.5648 12.19C3.06572 12.4318 2.86609 13.0535 3.13226 13.5717C3.19881 13.7444 5.02875 17.4404 9.05463 17.8549V20.9637C9.05463 21.5509 9.48716 22 10.0528 22H15.8753C16.441 22 16.8735 21.5509 16.8735 20.9637V16.8532C16.8735 16.2314 16.7404 15.6442 16.5075 15.1261C19.2025 14.0553 20.9992 11.9136 20.9992 9.46114Z" fill="white"/>
</g>
</g>
<defs>
<clipPath id="clip0_48_2223">
<rect width="18" height="20" fill="white" transform="translate(3 2)"/>
</clipPath>
<clipPath id="clip1_48_2223">
<rect width="18" height="20" fill="white" transform="translate(3 2)"/>
</clipPath>
</defs>
</svg>
